<svg fill="none" xmlns="http://www.w3.org/2000/svg" viewBox="0 0 711 724">
  <path fill="#E5E5E5" d="M0 0h711v724H0z"/>
  <path fill="#fff" d="M0 0h711v724H0z"/>
  <g filter="url(#filter0_d)" clip-path="url(#clip0)">
    <path d="M479.768 393.242l-22.698-12.895a99.3726 99.3726 0 000-36.799l22.698-12.895c2.611-1.467 3.784-4.508 2.931-7.338-5.914-18.662-15.985-35.541-29.146-49.589-2.025-2.149-5.328-2.673-7.886-1.205l-22.698 12.895c-9.538-8.073-20.515-14.311-32.397-18.4v-25.737c0-2.936-2.078-5.504-5.008-6.133-19.555-4.299-39.59-4.089-58.186 0-2.93.629-5.008 3.197-5.008 6.133v25.79c-11.829 4.141-22.805 10.379-32.396 18.399l-22.646-12.895c-2.611-1.468-5.861-.996-7.886 1.206-13.161 13.995-23.231 30.874-29.146 49.588-.905 2.831.32 5.871 2.931 7.339l22.699 12.895a99.3247 99.3247 0 000 36.798l-22.699 12.895c-2.611 1.468-3.783 4.508-2.931 7.339 5.915 18.661 15.985 35.54 29.146 49.588 2.025 2.15 5.329 2.674 7.886 1.206l22.699-12.895c9.538 8.073 20.514 14.31 32.396 18.399v25.79c0 2.936 2.078 5.504 5.009 6.133 19.555 4.299 39.589 4.089 58.185 0 2.931-.629 5.009-3.197 5.009-6.133v-25.79c11.828-4.141 22.805-10.379 32.396-18.399l22.698 12.895c2.611 1.468 5.862.996 7.886-1.206 13.161-13.995 23.232-30.874 29.146-49.588.8-2.883-.373-5.923-2.984-7.391zm-123.297 10.641c-23.498 0-42.627-18.819-42.627-41.935 0-23.117 19.129-41.936 42.627-41.936s42.627 18.819 42.627 41.936c0 23.116-19.129 41.935-42.627 41.935z" fill="#000"/>
    <path d="M456.578 380.254l-.066.351.311.176 22.699 12.896.246-.434-.245.435c2.397 1.347 3.487 4.142 2.75 6.813-5.892 18.637-15.922 35.448-29.031 49.388l-.004.004c-1.862 2.025-4.856 2.465-7.271 1.109 0 0-.001 0-.001-.001l-22.697-12.894-.302-.171-.266.222c-9.545 7.982-20.468 14.19-32.241 18.311l-.334.117v26.145c0 2.697-1.911 5.064-4.614 5.644l-.002.001c-18.527 4.074-38.489 4.282-57.971 0h-.002c-2.704-.581-4.614-2.948-4.614-5.645v-26.147l-.337-.116c-11.824-4.068-22.746-10.275-32.236-18.308l-.267-.225-.303.172-22.699 12.895-.002.001c-2.352 1.35-5.403.87-7.273-1.114-13.11-13.995-23.141-30.807-29.032-49.394-.785-2.611.297-5.405 2.698-6.755l.002-.001 22.699-12.895.31-.177-.066-.35a98.851 98.851 0 010-36.614l.066-.35-.31-.177-22.699-12.895-.002-.001c-2.409-1.354-3.531-4.151-2.699-6.751v-.001c5.891-18.641 15.923-35.454 29.034-49.397h0l.003-.004c1.863-2.026 4.858-2.466 7.272-1.109l.001.001 22.643 12.894.302.171.266-.222c9.545-7.982 20.469-14.19 32.241-18.311l.335-.117v-26.145c0-2.697 1.91-5.064 4.613-5.644l.003-.001c18.527-4.074 38.488-4.282 57.97 0l.003.001c2.703.58 4.613 2.947 4.613 5.644V267.373l.338.116c11.823 4.069 22.745 10.276 32.236 18.308l.266.226.304-.173 22.698-12.895.002-.001c2.352-1.35 5.402-.87 7.272 1.114 13.111 13.995 23.142 30.808 29.033 49.394.785 2.611-.297 5.406-2.698 6.755l-.001.002-22.699 12.895-.311.176.066.351c2.28 12.1 2.28 24.513 0 36.613zm-143.234-18.306c0 23.4 19.361 42.435 43.127 42.435 23.766 0 43.127-19.035 43.127-42.435 0-23.401-19.361-42.436-43.127-42.436-23.766 0-43.127 19.035-43.127 42.436z" stroke="#000"/>
  </g>
  <path d="M658.717 125.718l-275.2-110.6356C375.134 11.7271 366.147 10 357.072 10c-9.076 0-18.062 1.7271-26.445 5.0824L55.4267 125.718C29.77 135.952 13 160.154 13 186.983c0 274.515 164.117 464.255 317.483 525.935 16.914 6.776 35.977 6.776 52.89 0C506.21 663.546 701 493.029 701 186.983c0-26.829-16.77-51.031-42.283-61.265zM357.143 627.175L357 100.272l252.123 101.37c-4.73 209.378-117.676 361.088-251.98 425.533z" fill="#000" fill-opacity=".51"/>
  <path d="M357.823 29.9717C303.213 100.969 248.451 172.118 193.916 243.04c-60.049 78.672-57.966 187.129 8.047 260.11 39.337 43.344 96.119 67.009 155.339 65.442l-.125 129.436c54.61-70.997 109.145-141.92 163.756-212.917 59.898-78.521 57.891-187.202-8.123-259.736-39.185-43.496-96.118-67.009-155.263-65.518l.276-129.8853zM472.718 261.147c56.745 61.69 49.033 158.341-14.012 214.385-63.574 56.571-159.755 53.982-216.726-8.228-56.293-61.696-48.881-158.641 14.163-214.535 63.423-56.421 159.604-53.831 216.575 8.378z" fill="#D8C519"/>
  <g filter="url(#filter1_i)">
    <circle cx="358" cy="364" r="67" fill="#606060"/>
  </g>
  <circle cx="358" cy="364" r="66.5" stroke="#000"/>
  <circle cx="357.5" cy="364.5" r="42.5" fill="#C4C4C4"/>
  <defs>
    <filter id="filter0_d" x="226" y="232" width="261" height="272" filterUnits="userSpaceOnUse" color-interpolation-filters="sRGB">
      <feFlood flood-opacity="0" result="BackgroundImageFix"/>
      <feColorMatrix in="SourceAlpha" values="0 0 0 0 0 0 0 0 0 0 0 0 0 0 0 0 0 0 127 0"/>
      <feOffset dy="8"/>
      <feGaussianBlur stdDeviation="2"/>
      <feColorMatrix values="0 0 0 0 0 0 0 0 0 0 0 0 0 0 0 0 0 0 0.25 0"/>
      <feBlend in2="BackgroundImageFix" result="effect1_dropShadow"/>
      <feBlend in="SourceGraphic" in2="effect1_dropShadow" result="shape"/>
    </filter>
    <filter id="filter1_i" x="291" y="297" width="134" height="138" filterUnits="userSpaceOnUse" color-interpolation-filters="sRGB">
      <feFlood flood-opacity="0" result="BackgroundImageFix"/>
      <feBlend in="SourceGraphic" in2="BackgroundImageFix" result="shape"/>
      <feColorMatrix in="SourceAlpha" values="0 0 0 0 0 0 0 0 0 0 0 0 0 0 0 0 0 0 127 0" result="hardAlpha"/>
      <feOffset dy="8"/>
      <feGaussianBlur stdDeviation="2"/>
      <feComposite in2="hardAlpha" operator="arithmetic" k2="-1" k3="1"/>
      <feColorMatrix values="0 0 0 0 0 0 0 0 0 0 0 0 0 0 0 0 0 0 0.73 0"/>
      <feBlend in2="shape" result="effect1_innerShadow"/>
    </filter>
    <clipPath id="clip0">
      <path fill="#fff" transform="translate(224 230)" d="M0 0h264v264H0z"/>
    </clipPath>
  </defs>
</svg>
